<svg id="Layer_1" data-name="Layer 1" xmlns="http://www.w3.org/2000/svg" xmlns:xlink="http://www.w3.org/1999/xlink" viewBox="0 0 476.84 46.62"><defs><style>.cls-1{fill:none;}.cls-2{clip-path:url(#clip-path);}.cls-3{fill:#00a4e0;}</style><clipPath id="clip-path" transform="translate(-114.66 -226.04)"><rect class="cls-1" x="572.77" y="238.39" width="20" height="33"/></clipPath></defs><title>Logo1</title><g class="cls-2"><path class="cls-3" d="M583.47,247.19l.3.6a66.52,66.52,0,0,0,3.9,7.5,23.51,23.51,0,0,1,1.9,3.9,8.94,8.94,0,0,1-3,10c-.1.1-.4.3-.4.2-.2-.3.1-.3.2-.5a9,9,0,0,0,1.6-9.8c-.6-1.5-1.3-3-2-4.5a54.57,54.57,0,0,1-2.6-6.7A1.48,1.48,0,0,1,583.47,247.19Zm-1.2,24.1a9.51,9.51,0,0,0,8.7-12.7,30.26,30.26,0,0,0-2.7-5.4,42.49,42.49,0,0,1-5.8-14.1,2.54,2.54,0,0,1-.2-.7c-.3.2-.3.4-.3.7a48.34,48.34,0,0,1-6.3,15,15.49,15.49,0,0,0-2.6,6.2,9.3,9.3,0,0,0,9.2,11" transform="translate(-114.66 -226.04)"/></g><path d="M147.66,253.14h-15.1v3.7H144V263a14.42,14.42,0,0,1-11.3,5.5c-8.2,0-14.1-6.7-14.1-14.9s5.9-14.9,14.1-14.9a14,14,0,0,1,11.7,6.2l3.3-1.6a17.64,17.64,0,0,0-15-8.3c-10.2,0-18,8.3-18,18.6s7.8,18.6,18,18.6a17.52,17.52,0,0,0,15-8.3Z" transform="translate(-114.66 -226.04)"/><path d="M179.35,271.84l-8.2-14.6a11.32,11.32,0,0,0-4.1-21.9h-13.6v36.4h3.7v-13.8h10.1l7.8,13.9Zm-22.2-32.7h9.9a7.5,7.5,0,0,1,0,15h-9.9Z" transform="translate(-114.66 -226.04)"/><path d="M209.13,271.84h4.2l-13.8-36.5h-3.4l-13.7,36.5h4.2l4-10.6h14.7Zm-17.2-14.4,5.9-16.1,6,16.1Zm2-31.4a2.11,2.11,0,0,0-2.1,2.1,2.18,2.18,0,0,0,2.1,2.1,2.11,2.11,0,0,0,2.1-2.1A2.18,2.18,0,0,0,193.93,226Zm7.8,0a2.1,2.1,0,1,0,0,4.2,2.1,2.1,0,1,0,0-4.2Z" transform="translate(-114.66 -226.04)"/><path d="M242.18,235.34v29.4l-20.5-29.4h-3.4v36.4H222v-29.5l20.5,29.5h3.4v-36.4Z" transform="translate(-114.66 -226.04)"/><path d="M276.6,235.34v29.4l-20.5-29.4h-3.4v36.4h3.7v-29.5l20.5,29.5h3.4v-36.4Z" transform="translate(-114.66 -226.04)"/><path d="M299.81,251.64c-6.9-1.2-9.8-2.7-9.8-6.3,0-4.3,3.5-6.6,9.2-6.6,4,0,8,1.4,8.9,5.3l3.6-1.3c-1.4-4.3-6.1-7.7-12.5-7.7-8.9,0-13,4.9-12.9,10.3.1,6.7,5.8,8.7,12.9,10s10.2,2.4,10.2,6.3c0,5.1-5.7,6.8-9.6,6.8-5.5,0-9.5-2-10.9-5.5l-3.6,1.3c1.5,4.1,6.4,8,14.6,8,6.7,0,13.3-3.5,13.3-10.6S306.51,252.74,299.81,251.64Z" transform="translate(-114.66 -226.04)"/><path d="M332.76,235.34H329v26.8c0,4.4-1.9,6.3-5,6.3a7.06,7.06,0,0,1-5.4-2.4l-2.8,2.2a10.66,10.66,0,0,0,8.3,4c5.7,0,8.6-3.7,8.6-10.1S332.76,235.34,332.76,235.34Z" transform="translate(-114.66 -226.04)"/><path d="M355.93,235c-10.2,0-17.7,8.3-17.7,18.6s7.4,18.6,17.7,18.6,17.6-8.3,17.6-18.6S366.13,235,355.93,235Zm0,33.5c-8.2,0-13.8-6.7-13.8-14.9s5.6-14.9,13.8-14.9,13.8,6.7,13.8,14.9S364,268.54,355.93,268.54Zm-4-42.5a2.11,2.11,0,0,0-2.1,2.1,2.18,2.18,0,0,0,2.1,2.1,2.1,2.1,0,0,0,0-4.2Zm7.9,0a2.1,2.1,0,1,0,0,4.2,2.05,2.05,0,0,0,2.1-2.1A2.11,2.11,0,0,0,359.83,226Z" transform="translate(-114.66 -226.04)"/><path d="M410.79,236.46l-8.7,25.1-9-25.1h-8.5l13.8,35.5h7.3l13.4-35.5Z" transform="translate(-114.66 -226.04)"/><path d="M446.36,236.46l-8.7,25.1-9-25.1h-8.5L434,272h7.2l13.4-35.5Z" transform="translate(-114.66 -226.04)"/><path d="M471.13,272.66c7.3,0,13.4-3.7,13.4-11.3,0-8-6.8-9.6-12.2-11-3.8-.9-6.8-1.7-6.8-4.2,0-2.3,2.5-3.4,5-3.4,2.9,0,5.4,1.4,5.4,4.5h7.5c0-7.1-4.6-11.4-12.8-11.4-7.9,0-12.9,3.8-12.9,10.6,0,7.7,6.5,9.2,11.9,10.5,3.9.9,7.1,1.6,7.1,4.4,0,2.6-2.8,4.2-5.7,4.2-3.1,0-6-1.7-6-5.1h-7.8C457.33,268.06,463,272.66,471.13,272.66Z" transform="translate(-114.66 -226.04)"/><path d="M526.33,272h8.4l-14.3-35.5h-7.2l-14,35.5h8.2l2.4-6.7h14.1Zm-9.5-26.1,4.7,12.7h-9.3Z" transform="translate(-114.66 -226.04)"/><path d="M560.61,253.26a9.25,9.25,0,0,0,4-7.6c0-5.2-4.6-9.1-10.7-9.1h-14.6v35.5h15c6.2,0,11.2-4.6,11.2-10.2A9.52,9.52,0,0,0,560.61,253.26Zm-3.5-6.4a3.73,3.73,0,0,1-4,3.8h-6.4v-7.5h6.4A3.55,3.55,0,0,1,557.11,246.86Zm-3.5,18.1h-6.8v-8h6.8a3.92,3.92,0,0,1,4.2,3.9A4,4,0,0,1,553.61,265Z" transform="translate(-114.66 -226.04)"/></svg>